<mxfile host="app.diagrams.net" modified="2023-01-27T21:23:55.834Z" agent="5.0 (Windows NT 10.0; Win64; x64) AppleWebKit/537.36 (KHTML, like Gecko) Chrome/109.0.0.0 Safari/537.36" etag="7SuhN9Visb_FRk_04twZ" version="20.8.11" type="github">
  <diagram id="C5RBs43oDa-KdzZeNtuy" name="Page-1">
    <mxGraphModel dx="682" dy="676" grid="1" gridSize="10" guides="1" tooltips="1" connect="1" arrows="1" fold="1" page="1" pageScale="1" pageWidth="827" pageHeight="1169" math="0" shadow="0">
      <root>
        <mxCell id="WIyWlLk6GJQsqaUBKTNV-0" />
        <mxCell id="WIyWlLk6GJQsqaUBKTNV-1" parent="WIyWlLk6GJQsqaUBKTNV-0" />
        <mxCell id="N2-jiG50IVHrFEvEO8ib-144" style="edgeStyle=orthogonalEdgeStyle;rounded=0;orthogonalLoop=1;jettySize=auto;html=1;entryX=0.75;entryY=0;entryDx=0;entryDy=0;" edge="1" parent="WIyWlLk6GJQsqaUBKTNV-1" source="N2-jiG50IVHrFEvEO8ib-137" target="N2-jiG50IVHrFEvEO8ib-138">
          <mxGeometry relative="1" as="geometry">
            <Array as="points">
              <mxPoint x="610" y="1000" />
            </Array>
          </mxGeometry>
        </mxCell>
        <mxCell id="N2-jiG50IVHrFEvEO8ib-146" style="edgeStyle=orthogonalEdgeStyle;rounded=0;orthogonalLoop=1;jettySize=auto;html=1;exitX=0.5;exitY=0;exitDx=0;exitDy=0;entryX=0.5;entryY=1;entryDx=0;entryDy=0;" edge="1" parent="WIyWlLk6GJQsqaUBKTNV-1" source="N2-jiG50IVHrFEvEO8ib-137" target="N2-jiG50IVHrFEvEO8ib-28">
          <mxGeometry relative="1" as="geometry" />
        </mxCell>
        <mxCell id="N2-jiG50IVHrFEvEO8ib-137" value="" style="ellipse;whiteSpace=wrap;html=1;fillColor=#f8cecc;strokeColor=#b85450;" vertex="1" parent="WIyWlLk6GJQsqaUBKTNV-1">
          <mxGeometry x="220" y="240" width="200" height="800" as="geometry" />
        </mxCell>
        <mxCell id="N2-jiG50IVHrFEvEO8ib-136" style="edgeStyle=orthogonalEdgeStyle;rounded=0;orthogonalLoop=1;jettySize=auto;html=1;exitX=0.5;exitY=1;exitDx=0;exitDy=0;" edge="1" parent="WIyWlLk6GJQsqaUBKTNV-1" source="N2-jiG50IVHrFEvEO8ib-96">
          <mxGeometry relative="1" as="geometry">
            <mxPoint x="523" y="910" as="targetPoint" />
          </mxGeometry>
        </mxCell>
        <mxCell id="N2-jiG50IVHrFEvEO8ib-96" value="" style="ellipse;whiteSpace=wrap;html=1;fillColor=#dae8fc;strokeColor=#6c8ebf;" vertex="1" parent="WIyWlLk6GJQsqaUBKTNV-1">
          <mxGeometry x="450" y="390" width="140" height="530" as="geometry" />
        </mxCell>
        <mxCell id="N2-jiG50IVHrFEvEO8ib-107" style="edgeStyle=orthogonalEdgeStyle;rounded=0;orthogonalLoop=1;jettySize=auto;html=1;entryX=0.5;entryY=0;entryDx=0;entryDy=0;" edge="1" parent="WIyWlLk6GJQsqaUBKTNV-1" source="N2-jiG50IVHrFEvEO8ib-96" target="N2-jiG50IVHrFEvEO8ib-28">
          <mxGeometry relative="1" as="geometry">
            <mxPoint x="810" y="18.4" as="targetPoint" />
            <Array as="points">
              <mxPoint x="440" y="580" />
              <mxPoint x="440" y="20" />
              <mxPoint x="324" y="20" />
            </Array>
          </mxGeometry>
        </mxCell>
        <mxCell id="N2-jiG50IVHrFEvEO8ib-0" value="txt" style="shape=document;whiteSpace=wrap;html=1;boundedLbl=1;fillColor=#dae8fc;strokeColor=#6c8ebf;" vertex="1" parent="WIyWlLk6GJQsqaUBKTNV-1">
          <mxGeometry x="630" y="30" width="120" height="70" as="geometry" />
        </mxCell>
        <mxCell id="N2-jiG50IVHrFEvEO8ib-33" style="edgeStyle=orthogonalEdgeStyle;rounded=0;orthogonalLoop=1;jettySize=auto;html=1;exitX=0.5;exitY=1;exitDx=0;exitDy=0;entryX=0;entryY=0.5;entryDx=0;entryDy=0;" edge="1" parent="WIyWlLk6GJQsqaUBKTNV-1" source="N2-jiG50IVHrFEvEO8ib-1" target="N2-jiG50IVHrFEvEO8ib-32">
          <mxGeometry relative="1" as="geometry">
            <Array as="points">
              <mxPoint x="150" y="365" />
            </Array>
          </mxGeometry>
        </mxCell>
        <mxCell id="N2-jiG50IVHrFEvEO8ib-97" style="edgeStyle=orthogonalEdgeStyle;rounded=0;orthogonalLoop=1;jettySize=auto;html=1;exitX=1;exitY=0.5;exitDx=0;exitDy=0;entryX=0.5;entryY=0;entryDx=0;entryDy=0;" edge="1" parent="WIyWlLk6GJQsqaUBKTNV-1" source="N2-jiG50IVHrFEvEO8ib-1" target="N2-jiG50IVHrFEvEO8ib-96">
          <mxGeometry relative="1" as="geometry">
            <Array as="points">
              <mxPoint x="304" y="230" />
              <mxPoint x="720" y="230" />
            </Array>
          </mxGeometry>
        </mxCell>
        <mxCell id="N2-jiG50IVHrFEvEO8ib-1" value="валид" style="rhombus;whiteSpace=wrap;html=1;fillColor=#fff2cc;strokeColor=#d6b656;" vertex="1" parent="WIyWlLk6GJQsqaUBKTNV-1">
          <mxGeometry x="110" y="235" width="80" height="80" as="geometry" />
        </mxCell>
        <mxCell id="N2-jiG50IVHrFEvEO8ib-27" style="edgeStyle=orthogonalEdgeStyle;rounded=0;orthogonalLoop=1;jettySize=auto;html=1;entryX=1;entryY=0.5;entryDx=0;entryDy=0;" edge="1" parent="WIyWlLk6GJQsqaUBKTNV-1" source="N2-jiG50IVHrFEvEO8ib-2" target="N2-jiG50IVHrFEvEO8ib-18">
          <mxGeometry relative="1" as="geometry">
            <Array as="points">
              <mxPoint x="420" y="470" />
              <mxPoint x="420" y="470" />
            </Array>
          </mxGeometry>
        </mxCell>
        <mxCell id="N2-jiG50IVHrFEvEO8ib-2" value="int" style="rhombus;whiteSpace=wrap;html=1;fillColor=#d5e8d4;strokeColor=#82b366;" vertex="1" parent="WIyWlLk6GJQsqaUBKTNV-1">
          <mxGeometry x="477.5" y="430" width="80" height="80" as="geometry" />
        </mxCell>
        <mxCell id="N2-jiG50IVHrFEvEO8ib-26" style="edgeStyle=orthogonalEdgeStyle;rounded=0;orthogonalLoop=1;jettySize=auto;html=1;entryX=1;entryY=0.5;entryDx=0;entryDy=0;" edge="1" parent="WIyWlLk6GJQsqaUBKTNV-1" source="N2-jiG50IVHrFEvEO8ib-3" target="N2-jiG50IVHrFEvEO8ib-19">
          <mxGeometry relative="1" as="geometry" />
        </mxCell>
        <mxCell id="N2-jiG50IVHrFEvEO8ib-24" style="edgeStyle=orthogonalEdgeStyle;rounded=0;orthogonalLoop=1;jettySize=auto;html=1;exitX=0;exitY=0.5;exitDx=0;exitDy=0;entryX=1;entryY=0.5;entryDx=0;entryDy=0;" edge="1" parent="WIyWlLk6GJQsqaUBKTNV-1" source="N2-jiG50IVHrFEvEO8ib-5" target="N2-jiG50IVHrFEvEO8ib-21">
          <mxGeometry relative="1" as="geometry">
            <Array as="points">
              <mxPoint x="478" y="745" />
            </Array>
          </mxGeometry>
        </mxCell>
        <mxCell id="N2-jiG50IVHrFEvEO8ib-5" value="url" style="rhombus;whiteSpace=wrap;html=1;fillColor=#d5e8d4;strokeColor=#82b366;" vertex="1" parent="WIyWlLk6GJQsqaUBKTNV-1">
          <mxGeometry x="482.5" y="705" width="80" height="80" as="geometry" />
        </mxCell>
        <mxCell id="N2-jiG50IVHrFEvEO8ib-23" style="edgeStyle=orthogonalEdgeStyle;rounded=0;orthogonalLoop=1;jettySize=auto;html=1;exitX=0;exitY=0.5;exitDx=0;exitDy=0;entryX=1;entryY=0.5;entryDx=0;entryDy=0;" edge="1" parent="WIyWlLk6GJQsqaUBKTNV-1" source="N2-jiG50IVHrFEvEO8ib-6" target="N2-jiG50IVHrFEvEO8ib-22">
          <mxGeometry relative="1" as="geometry">
            <Array as="points">
              <mxPoint x="430" y="840" />
              <mxPoint x="430" y="840" />
            </Array>
          </mxGeometry>
        </mxCell>
        <mxCell id="N2-jiG50IVHrFEvEO8ib-105" style="edgeStyle=orthogonalEdgeStyle;rounded=0;orthogonalLoop=1;jettySize=auto;html=1;entryX=1;entryY=0.5;entryDx=0;entryDy=0;exitX=0.5;exitY=1;exitDx=0;exitDy=0;" edge="1" parent="WIyWlLk6GJQsqaUBKTNV-1" source="N2-jiG50IVHrFEvEO8ib-96" target="N2-jiG50IVHrFEvEO8ib-60">
          <mxGeometry relative="1" as="geometry">
            <mxPoint x="550" y="940" as="sourcePoint" />
            <Array as="points">
              <mxPoint x="520" y="940" />
            </Array>
          </mxGeometry>
        </mxCell>
        <mxCell id="N2-jiG50IVHrFEvEO8ib-6" value="val" style="rhombus;whiteSpace=wrap;html=1;fillColor=#d5e8d4;strokeColor=#82b366;" vertex="1" parent="WIyWlLk6GJQsqaUBKTNV-1">
          <mxGeometry x="482.5" y="800" width="80" height="80" as="geometry" />
        </mxCell>
        <mxCell id="N2-jiG50IVHrFEvEO8ib-19" value="error" style="shape=parallelogram;perimeter=parallelogramPerimeter;whiteSpace=wrap;html=1;fixedSize=1;fillColor=#ffe6cc;strokeColor=#d79b00;" vertex="1" parent="WIyWlLk6GJQsqaUBKTNV-1">
          <mxGeometry x="264" y="530" width="120" height="60" as="geometry" />
        </mxCell>
        <mxCell id="N2-jiG50IVHrFEvEO8ib-21" value="error" style="shape=parallelogram;perimeter=parallelogramPerimeter;whiteSpace=wrap;html=1;fixedSize=1;fillColor=#ffe6cc;strokeColor=#d79b00;" vertex="1" parent="WIyWlLk6GJQsqaUBKTNV-1">
          <mxGeometry x="260" y="715" width="120" height="60" as="geometry" />
        </mxCell>
        <mxCell id="N2-jiG50IVHrFEvEO8ib-22" value="error" style="shape=parallelogram;perimeter=parallelogramPerimeter;whiteSpace=wrap;html=1;fixedSize=1;fillColor=#ffe6cc;strokeColor=#d79b00;" vertex="1" parent="WIyWlLk6GJQsqaUBKTNV-1">
          <mxGeometry x="260" y="810" width="120" height="60" as="geometry" />
        </mxCell>
        <mxCell id="N2-jiG50IVHrFEvEO8ib-35" style="edgeStyle=orthogonalEdgeStyle;rounded=0;orthogonalLoop=1;jettySize=auto;html=1;exitX=0;exitY=0.5;exitDx=0;exitDy=0;entryX=0.5;entryY=0;entryDx=0;entryDy=0;" edge="1" parent="WIyWlLk6GJQsqaUBKTNV-1" source="N2-jiG50IVHrFEvEO8ib-28" target="N2-jiG50IVHrFEvEO8ib-36">
          <mxGeometry relative="1" as="geometry">
            <mxPoint x="120" y="600" as="targetPoint" />
            <Array as="points">
              <mxPoint x="304" y="130" />
              <mxPoint x="100" y="130" />
            </Array>
          </mxGeometry>
        </mxCell>
        <mxCell id="N2-jiG50IVHrFEvEO8ib-124" style="edgeStyle=orthogonalEdgeStyle;rounded=0;orthogonalLoop=1;jettySize=auto;html=1;exitX=0;exitY=1;exitDx=0;exitDy=0;entryX=0.5;entryY=0;entryDx=0;entryDy=0;" edge="1" parent="WIyWlLk6GJQsqaUBKTNV-1" source="N2-jiG50IVHrFEvEO8ib-28" target="N2-jiG50IVHrFEvEO8ib-1">
          <mxGeometry relative="1" as="geometry" />
        </mxCell>
        <mxCell id="N2-jiG50IVHrFEvEO8ib-28" value="цикл" style="ellipse;whiteSpace=wrap;html=1;aspect=fixed;fillColor=#ffff88;strokeColor=#36393d;" vertex="1" parent="WIyWlLk6GJQsqaUBKTNV-1">
          <mxGeometry x="234" y="40" width="180" height="180" as="geometry" />
        </mxCell>
        <mxCell id="N2-jiG50IVHrFEvEO8ib-32" value="error" style="shape=parallelogram;perimeter=parallelogramPerimeter;whiteSpace=wrap;html=1;fixedSize=1;fillColor=#ffe6cc;strokeColor=#d79b00;" vertex="1" parent="WIyWlLk6GJQsqaUBKTNV-1">
          <mxGeometry x="260" y="335" width="120" height="60" as="geometry" />
        </mxCell>
        <mxCell id="N2-jiG50IVHrFEvEO8ib-39" style="edgeStyle=orthogonalEdgeStyle;rounded=0;orthogonalLoop=1;jettySize=auto;html=1;exitX=0.5;exitY=1;exitDx=0;exitDy=0;entryX=0.5;entryY=0;entryDx=0;entryDy=0;" edge="1" parent="WIyWlLk6GJQsqaUBKTNV-1" source="N2-jiG50IVHrFEvEO8ib-36" target="N2-jiG50IVHrFEvEO8ib-37">
          <mxGeometry relative="1" as="geometry">
            <Array as="points">
              <mxPoint x="80" y="870" />
              <mxPoint x="105" y="870" />
            </Array>
          </mxGeometry>
        </mxCell>
        <mxCell id="N2-jiG50IVHrFEvEO8ib-41" style="edgeStyle=orthogonalEdgeStyle;rounded=0;orthogonalLoop=1;jettySize=auto;html=1;exitX=1;exitY=0.5;exitDx=0;exitDy=0;" edge="1" parent="WIyWlLk6GJQsqaUBKTNV-1" source="N2-jiG50IVHrFEvEO8ib-36" target="N2-jiG50IVHrFEvEO8ib-38">
          <mxGeometry relative="1" as="geometry">
            <mxPoint x="230" y="720" as="targetPoint" />
          </mxGeometry>
        </mxCell>
        <mxCell id="N2-jiG50IVHrFEvEO8ib-36" value="" style="rhombus;whiteSpace=wrap;html=1;fillColor=#d5e8d4;strokeColor=#82b366;" vertex="1" parent="WIyWlLk6GJQsqaUBKTNV-1">
          <mxGeometry x="40" y="590" width="80" height="80" as="geometry" />
        </mxCell>
        <mxCell id="N2-jiG50IVHrFEvEO8ib-37" value="" style="rounded=0;whiteSpace=wrap;html=1;" vertex="1" parent="WIyWlLk6GJQsqaUBKTNV-1">
          <mxGeometry x="10" y="920" width="190" height="60" as="geometry" />
        </mxCell>
        <mxCell id="N2-jiG50IVHrFEvEO8ib-38" value="" style="rounded=0;whiteSpace=wrap;html=1;" vertex="1" parent="WIyWlLk6GJQsqaUBKTNV-1">
          <mxGeometry x="70" y="1080" width="190" height="60" as="geometry" />
        </mxCell>
        <mxCell id="N2-jiG50IVHrFEvEO8ib-51" value="json" style="shape=tape;whiteSpace=wrap;html=1;fillColor=#e1d5e7;strokeColor=#9673a6;" vertex="1" parent="WIyWlLk6GJQsqaUBKTNV-1">
          <mxGeometry x="630" y="120" width="120" height="90" as="geometry" />
        </mxCell>
        <mxCell id="N2-jiG50IVHrFEvEO8ib-60" value="error" style="shape=parallelogram;perimeter=parallelogramPerimeter;whiteSpace=wrap;html=1;fixedSize=1;fillColor=#ffe6cc;strokeColor=#d79b00;" vertex="1" parent="WIyWlLk6GJQsqaUBKTNV-1">
          <mxGeometry x="264" y="910" width="120" height="60" as="geometry" />
        </mxCell>
        <mxCell id="N2-jiG50IVHrFEvEO8ib-120" style="edgeStyle=orthogonalEdgeStyle;rounded=0;orthogonalLoop=1;jettySize=auto;html=1;exitX=0;exitY=0.5;exitDx=0;exitDy=0;entryX=1;entryY=0;entryDx=0;entryDy=0;" edge="1" parent="WIyWlLk6GJQsqaUBKTNV-1" source="N2-jiG50IVHrFEvEO8ib-64" target="N2-jiG50IVHrFEvEO8ib-1">
          <mxGeometry relative="1" as="geometry" />
        </mxCell>
        <mxCell id="N2-jiG50IVHrFEvEO8ib-121" style="edgeStyle=orthogonalEdgeStyle;rounded=0;orthogonalLoop=1;jettySize=auto;html=1;exitX=1;exitY=0.5;exitDx=0;exitDy=0;entryX=0.671;entryY=0.029;entryDx=0;entryDy=0;entryPerimeter=0;" edge="1" parent="WIyWlLk6GJQsqaUBKTNV-1" source="N2-jiG50IVHrFEvEO8ib-64" target="N2-jiG50IVHrFEvEO8ib-96">
          <mxGeometry relative="1" as="geometry">
            <Array as="points">
              <mxPoint x="544" y="90" />
            </Array>
          </mxGeometry>
        </mxCell>
        <mxCell id="N2-jiG50IVHrFEvEO8ib-64" value="item,items" style="shape=hexagon;perimeter=hexagonPerimeter2;whiteSpace=wrap;html=1;fixedSize=1;" vertex="1" parent="WIyWlLk6GJQsqaUBKTNV-1">
          <mxGeometry x="280" y="70" width="80" height="40" as="geometry" />
        </mxCell>
        <mxCell id="N2-jiG50IVHrFEvEO8ib-119" style="edgeStyle=orthogonalEdgeStyle;rounded=0;orthogonalLoop=1;jettySize=auto;html=1;exitX=0;exitY=0.5;exitDx=0;exitDy=0;entryX=0;entryY=0;entryDx=0;entryDy=0;" edge="1" parent="WIyWlLk6GJQsqaUBKTNV-1" source="N2-jiG50IVHrFEvEO8ib-66" target="N2-jiG50IVHrFEvEO8ib-1">
          <mxGeometry relative="1" as="geometry">
            <Array as="points">
              <mxPoint x="130" y="170" />
            </Array>
          </mxGeometry>
        </mxCell>
        <mxCell id="N2-jiG50IVHrFEvEO8ib-122" style="edgeStyle=orthogonalEdgeStyle;rounded=0;orthogonalLoop=1;jettySize=auto;html=1;exitX=1;exitY=0.5;exitDx=0;exitDy=0;entryX=0.321;entryY=0.032;entryDx=0;entryDy=0;entryPerimeter=0;" edge="1" parent="WIyWlLk6GJQsqaUBKTNV-1" source="N2-jiG50IVHrFEvEO8ib-66" target="N2-jiG50IVHrFEvEO8ib-96">
          <mxGeometry relative="1" as="geometry">
            <mxPoint x="670" y="340" as="targetPoint" />
            <Array as="points">
              <mxPoint x="495" y="170" />
            </Array>
          </mxGeometry>
        </mxCell>
        <mxCell id="N2-jiG50IVHrFEvEO8ib-66" value="item,items" style="shape=hexagon;perimeter=hexagonPerimeter2;whiteSpace=wrap;html=1;fixedSize=1;" vertex="1" parent="WIyWlLk6GJQsqaUBKTNV-1">
          <mxGeometry x="280" y="150" width="80" height="40" as="geometry" />
        </mxCell>
        <mxCell id="N2-jiG50IVHrFEvEO8ib-132" style="edgeStyle=orthogonalEdgeStyle;rounded=0;orthogonalLoop=1;jettySize=auto;html=1;exitX=0;exitY=0.5;exitDx=0;exitDy=0;entryX=1;entryY=0.5;entryDx=0;entryDy=0;" edge="1" parent="WIyWlLk6GJQsqaUBKTNV-1" source="N2-jiG50IVHrFEvEO8ib-4" target="N2-jiG50IVHrFEvEO8ib-20">
          <mxGeometry relative="1" as="geometry" />
        </mxCell>
        <mxCell id="N2-jiG50IVHrFEvEO8ib-4" value="bool" style="rhombus;whiteSpace=wrap;html=1;fillColor=#d5e8d4;strokeColor=#82b366;" vertex="1" parent="WIyWlLk6GJQsqaUBKTNV-1">
          <mxGeometry x="477.5" y="610" width="90" height="80" as="geometry" />
        </mxCell>
        <mxCell id="N2-jiG50IVHrFEvEO8ib-3" value="str" style="rhombus;whiteSpace=wrap;html=1;fillColor=#d5e8d4;strokeColor=#82b366;" vertex="1" parent="WIyWlLk6GJQsqaUBKTNV-1">
          <mxGeometry x="482.5" y="520" width="80" height="80" as="geometry" />
        </mxCell>
        <mxCell id="N2-jiG50IVHrFEvEO8ib-20" value="error" style="shape=parallelogram;perimeter=parallelogramPerimeter;whiteSpace=wrap;html=1;fixedSize=1;fillColor=#ffe6cc;strokeColor=#d79b00;" vertex="1" parent="WIyWlLk6GJQsqaUBKTNV-1">
          <mxGeometry x="260" y="620" width="120" height="60" as="geometry" />
        </mxCell>
        <mxCell id="N2-jiG50IVHrFEvEO8ib-18" value="error" style="shape=parallelogram;perimeter=parallelogramPerimeter;whiteSpace=wrap;html=1;fixedSize=1;fillColor=#ffe6cc;strokeColor=#d79b00;" vertex="1" parent="WIyWlLk6GJQsqaUBKTNV-1">
          <mxGeometry x="260" y="440" width="120" height="60" as="geometry" />
        </mxCell>
        <mxCell id="N2-jiG50IVHrFEvEO8ib-142" value="" style="edgeStyle=orthogonalEdgeStyle;rounded=0;orthogonalLoop=1;jettySize=auto;html=1;exitX=0;exitY=0.75;exitDx=0;exitDy=0;" edge="1" parent="WIyWlLk6GJQsqaUBKTNV-1" source="N2-jiG50IVHrFEvEO8ib-138" target="N2-jiG50IVHrFEvEO8ib-38">
          <mxGeometry relative="1" as="geometry" />
        </mxCell>
        <mxCell id="N2-jiG50IVHrFEvEO8ib-145" style="edgeStyle=orthogonalEdgeStyle;rounded=0;orthogonalLoop=1;jettySize=auto;html=1;exitX=0;exitY=0.25;exitDx=0;exitDy=0;entryX=1;entryY=1;entryDx=0;entryDy=0;" edge="1" parent="WIyWlLk6GJQsqaUBKTNV-1" source="N2-jiG50IVHrFEvEO8ib-138" target="N2-jiG50IVHrFEvEO8ib-36">
          <mxGeometry relative="1" as="geometry">
            <Array as="points">
              <mxPoint x="460" y="1060" />
              <mxPoint x="220" y="1060" />
              <mxPoint x="220" y="845" />
              <mxPoint x="100" y="845" />
            </Array>
          </mxGeometry>
        </mxCell>
        <mxCell id="N2-jiG50IVHrFEvEO8ib-138" value="Vertical Container" style="swimlane;whiteSpace=wrap;html=1;" vertex="1" parent="WIyWlLk6GJQsqaUBKTNV-1">
          <mxGeometry x="460" y="1020" width="200" height="140" as="geometry" />
        </mxCell>
        <mxCell id="N2-jiG50IVHrFEvEO8ib-147" style="edgeStyle=orthogonalEdgeStyle;rounded=0;orthogonalLoop=1;jettySize=auto;html=1;exitX=0.5;exitY=1;exitDx=0;exitDy=0;" edge="1" parent="WIyWlLk6GJQsqaUBKTNV-1" source="N2-jiG50IVHrFEvEO8ib-137" target="N2-jiG50IVHrFEvEO8ib-137">
          <mxGeometry relative="1" as="geometry" />
        </mxCell>
      </root>
    </mxGraphModel>
  </diagram>
</mxfile>
